# xmcd
#
# Track frame offsets:
#	150
#	9642
#	23430
#	37799
#	47031
#	57347
#	67051
#	78201
#	88031
#	101091
#	111300
#	127557
#	134649
#	148757
#	164264
#	171211
#	179418
#	190026
#	198896
#
# Disc length: 2808 seconds
#
# Revision: 3
# Processed by: cddbd v1.5.2PL0 Copyright (c) Steve Scherf et al.
# Submitted via: audiograbber 1.83.01
#
DISCID=fb0af613
DTITLE=The World Of (Gospel) CD 1 - The World Of (Gospel) CD 1
DYEAR=1996
DGENRE=Gospel
TTITLE0=The Riverside Gospel Group - Old time religion
TTITLE1=The Riverside Gospel Group - Down by the riverside
TTITLE2=The Riverside Gospel Group - Go tell it on the mountain
TTITLE3=The Riverside Gospel Group - Roll Jordan roll
TTITLE4=The Riverside Gospel Group - Just a closer walk with thee
TTITLE5=The Riverside Gospel Group - The battle of Jericho
TTITLE6=The Riverside Gospel Group - Nobody knows the trouble I've seen
TTITLE7=The Riverside Gospel Group - Get on board (gospel train)
TTITLE8=The Riverside Gospel Group - My lord, what a morning
TTITLE9=The Riverside Gospel Group - Swing low sweet chariot
TTITLE10=The Riverside Gospel Group - Deep river
TTITLE11=The Riverside Gospel Group - It's me, oh lord
TTITLE12=The Riverside Gospel Group - I hear the voice
TTITLE13=The Riverside Gospel Group - Go down Moses
TTITLE14=The Riverside Gospel Group - He's got the whole world in his hand
TTITLE15=The Riverside Gospel Group - Kumbaya, my lord
TTITLE16=The Riverside Gospel Group - Read your bible
TTITLE17=The Riverside Gospel Group - Sometimes I feel like a motherless child
TTITLE18=The Riverside Gospel Group - When the saints go marching in
EXTD=
EXTT0=
EXTT1=
EXTT2=
EXTT3=
EXTT4=
EXTT5=
EXTT6=
EXTT7=
EXTT8=
EXTT9=
EXTT10=
EXTT11=
EXTT12=
EXTT13=
EXTT14=
EXTT15=
EXTT16=
EXTT17=
EXTT18=
PLAYORDER=
